<svg viewBox="0 0 256 153" xmlns="http://www.w3.org/2000/svg">
  <path fill="#252F3E" d="M72.392 55.438c0 3.137.34 5.68.933 7.545a45.373 45.373 0 0 0 2.712 6.103c.424.678.593 1.356.593 1.95 0 .847-.508 1.695-1.61 2.543l-5.34 3.56c-.763.509-1.526.763-2.205.763-.847 0-1.695-.424-2.543-1.187a26.224 26.224 0 0 1-3.051-3.984c-.848-1.44-1.696-3.052-2.628-4.917-6.612 7.798-14.92 11.698-24.922 11.698-7.12 0-12.8-2.035-16.954-6.103-4.153-4.07-6.272-9.496-6.272-16.276 0-7.205 2.543-13.054 7.715-17.462 5.171-4.408 12.037-6.612 20.767-6.612 2.882 0 5.849.254 8.985.678 3.137.424 6.358 1.102 9.749 1.865V29.33c0-6.443-1.356-10.935-3.984-13.563-2.712-2.628-7.29-3.9-13.817-3.9-2.967 0-6.018.34-9.155 1.103-3.136.762-6.188 1.695-9.155 2.882-.848.339-1.78.593-2.458.763-.678.17-1.187.254-1.61.254-1.356 0-2.035-.932-2.035-2.882v-4.408c0-1.526.17-2.628.593-3.306.424-.678 1.187-1.356 2.374-2.035 2.967-1.525 6.527-2.797 10.68-3.814C33.908.763 38.484.17 43.316.17c10.087 0 17.462 2.29 22.21 6.867 4.662 4.577 7.036 11.52 7.036 20.852v27.549h-.17ZM37.975 68.325c2.798 0 5.68-.509 8.731-1.526 3.052-1.018 5.765-2.882 8.054-5.425 1.356-1.61 2.374-3.39 2.882-5.51.509-2.119.848-4.662.848-7.629v-3.645a70.791 70.791 0 0 0-7.799-1.441 63.874 63.874 0 0 0-7.968-.509c-5.68 0-9.834 1.103-12.63 3.391-2.798 2.289-4.154 5.51-4.154 9.749 0 3.984 1.018 6.951 3.137 8.985 2.035 2.119 5.002 3.136 8.9 3.136v.424Zm68.069 9.155c-1.78 0-2.967-.254-3.73-.848-.762-.509-1.44-1.695-2.034-3.39L80.987 3.306c-.593-1.78-.932-2.967-.932-3.645 0-1.44.678-2.289 2.034-2.289h8.307c1.865 0 3.137.254 3.814.848.763.509 1.356 1.695 1.95 3.39l14.666 57.774 13.648-57.774c.509-1.78 1.102-2.966 1.865-3.39.763-.509 2.119-.848 3.899-.848h6.78c1.865 0 3.136.254 3.898.848.763.509 1.441 1.695 1.865 3.39l13.817 58.452L172.71 1.61c.594-1.78 1.272-2.966 1.95-3.39.762-.509 2.035-.848 3.814-.848h7.884c1.356 0 2.119.764 2.119 2.289 0 .424-.085.933-.17 1.525-.085.594-.254 1.356-.593 2.289L167.2 73.157c-.593 1.78-1.271 2.966-2.034 3.39-.762.509-2.034.848-3.729.848h-7.29c-1.864 0-3.136-.254-3.898-.848-.763-.593-1.441-1.78-1.865-3.475l-13.563-56.247-13.479 56.162c-.508 1.78-1.102 2.967-1.865 3.475-.762.594-2.119.848-3.898.848h-7.29l-.003.085Zm108.927 2.29c-4.407 0-8.815-.51-13.054-1.526-4.239-1.017-7.544-2.12-9.748-3.39-1.356-.764-2.29-1.611-2.628-2.374a5.983 5.983 0 0 1-.509-2.374V65.27c0-1.949.763-2.882 2.204-2.882.593 0 1.186.085 1.78.254.593.17 1.44.51 2.373.933 3.221 1.441 6.697 2.543 10.341 3.306a49.47 49.47 0 0 0 10.51 1.187c5.595 0 9.918-.932 12.885-2.797 2.966-1.865 4.493-4.577 4.493-8.053 0-2.374-.763-4.323-2.289-5.934-1.526-1.61-4.408-3.051-8.561-4.408l-12.292-3.814c-6.188-1.95-10.766-4.832-13.563-8.647-2.797-3.73-4.238-7.883-4.238-12.291 0-3.56.762-6.697 2.289-9.41 1.525-2.712 3.56-5.086 6.103-6.95 2.543-1.95 5.425-3.391 8.816-4.324 3.39-.932 6.95-1.355 10.68-1.355 1.865 0 3.815.085 5.68.339 1.95.254 3.73.593 5.51.932 1.695.424 3.306.848 4.832 1.356 1.526.509 2.712 1.018 3.56 1.527 1.187.678 2.034 1.356 2.543 2.119.509.678.763 1.61.763 2.797v3.984c0 1.95-.763 2.967-2.204 2.967-.763 0-1.95-.34-3.56-1.018-5.425-2.459-11.52-3.645-18.301-3.645-5.087 0-9.071.763-11.784 2.373-2.712 1.61-4.068 4.069-4.068 7.46 0 2.374.848 4.408 2.543 6.019 1.695 1.61 4.832 3.22 9.325 4.661l12.037 3.815c6.103 1.95 10.511 4.662 13.139 8.137 2.627 3.475 3.899 7.46 3.899 11.867 0 3.645-.763 6.952-2.204 9.834-1.526 2.882-3.56 5.425-6.188 7.46-2.628 2.12-5.764 3.645-9.41 4.747-3.815 1.187-7.799 1.78-12.122 1.78"/>
  <path fill="#FF9900" d="M230.993 120.964c-27.888 20.599-68.408 31.534-103.247 31.534-48.827 0-92.821-18.056-126.05-48.064-2.628-2.374-.255-5.595 2.882-3.73 35.942 20.854 80.276 33.483 126.135 33.483 30.94 0 64.932-6.442 96.212-19.665 4.662-2.12 8.646 3.052 4.068 6.442"/>
  <path fill="#FF9900" d="M242.606 107.573c-3.56-4.577-23.566-2.204-32.636-1.102-2.713.339-3.137-2.034-.678-3.814 15.936-11.19 42.13-7.968 45.181-4.239 3.052 3.815-.848 30.008-15.767 42.554-2.288 1.95-4.492.933-3.475-1.61 3.39-8.393 10.935-27.296 7.375-31.79"/>
</svg>
