<svg viewBox="0 0 128 128" xmlns="http://www.w3.org/2000/svg">
  <path fill="#00A1C9" d="M128 64c0 35.346-28.654 64-64 64S0 99.346 0 64 28.654 0 64 0s64 28.654 64 64z"/>
  <path fill="#FFF" d="M64 24c-22.091 0-40 17.909-40 40s17.909 40 40 40 40-17.909 40-40-17.909-40-40-40zm0 72c-17.673 0-32-14.327-32-32s14.327-32 32-32 32 14.327 32 32-14.327 32-32 32z"/>
  <path fill="#FF9900" d="M64 48c-8.837 0-16 7.163-16 16s7.163 16 16 16 16-7.163 16-16-7.163-16-16-16zm0 24c-4.418 0-8-3.582-8-8s3.582-8 8-8 8 3.582 8 8-3.582 8-8 8z"/>
  <rect x="60" y="32" width="8" height="12" fill="#FFF"/>
  <rect x="60" y="84" width="8" height="12" fill="#FFF"/>
  <rect x="32" y="60" width="12" height="8" fill="#FFF"/>
  <rect x="84" y="60" width="12" height="8" fill="#FFF"/>
</svg>
