<svg viewBox="0 0 256 185" xmlns="http://www.w3.org/2000/svg">
  <path fill="#2496ED" d="M145.399 86.944c2.6 1.809 5.465 2.704 8.461 2.704 2.606 0 5.086-.689 7.439-2.064 2.353-1.375 4.229-3.248 5.627-5.618l30.127-50.535c1.398-2.37 2.097-4.94 2.097-7.709 0-2.77-.699-5.34-2.097-7.71-1.398-2.37-3.274-4.243-5.627-5.618-2.353-1.375-4.833-2.063-7.439-2.063H59.017c-2.606 0-5.087.688-7.44 2.063-2.353 1.375-4.229 3.248-5.627 5.618-1.398 2.37-2.097 4.94-2.097 7.71 0 2.769.699 5.339 2.097 7.709l30.127 50.535c1.398 2.37 3.274 4.243 5.627 5.618 2.353 1.375 4.834 2.064 7.44 2.064 2.996 0 5.86-.895 8.46-2.704l29.398-20.422 29.397 20.422zM0 92.293l38.327 38.326h38.328L38.327 92.293H0zm179.345 0l-38.328 38.326h38.328L217.673 92.293h-38.328zm-51.104 0L89.913 130.62h76.655l-38.327-38.326zm-25.862 51.387l-38.328 38.327h38.328v-38.327zm51.242 0v38.327h38.327l-38.327-38.327z"/>
</svg>
