<svg viewBox="0 0 256 256" xmlns="http://www.w3.org/2000/svg">
  <path fill="#F05032" d="M128 0C57.317 0 0 57.317 0 128s57.317 128 128 128 128-57.317 128-128S198.683 0 128 0z"/>
  <path fill="#FFF" d="M128 37.85c-49.824 0-90.15 40.326-90.15 90.15s40.326 90.15 90.15 90.15 90.15-40.326 90.15-90.15-40.326-90.15-90.15-90.15zm0 156.3c-36.5 0-66.15-29.65-66.15-66.15S91.5 61.85 128 61.85 194.15 91.5 194.15 128 164.5 194.15 128 194.15z"/>
  <path fill="#FFF" d="M128 85.85c-23.276 0-42.15 18.874-42.15 42.15s18.874 42.15 42.15 42.15 42.15-18.874 42.15-42.15-18.874-42.15-42.15-42.15z"/>
</svg>
