<svg viewBox="0 0 256 250" xmlns="http://www.w3.org/2000/svg">
  <defs>
    <linearGradient id="gh-a" x1="50%" x2="50%" y1="0%" y2="100%">
      <stop offset="0%" stop-color="#7B7B7B"/>
      <stop offset="100%" stop-color="#4A4A4A"/>
    </linearGradient>
  </defs>
  <path fill="url(#gh-a)" d="M128.001 0C57.317 0 0 57.307 0 128.001c0 56.554 36.676 104.535 87.535 121.46 6.397 1.185 8.746-2.777 8.746-6.17 0-3.043-.117-13.128-.172-23.795-35.61 7.742-43.124-15.103-43.124-15.103-5.823-14.795-14.213-18.73-14.213-18.73-11.613-7.944.876-7.78.876-7.78 12.853.902 19.621 13.19 19.621 13.19 11.417 19.568 29.945 13.911 37.249 10.64 1.149-8.272 4.466-13.92 8.127-17.116-28.431-3.236-58.318-14.212-58.318-63.258 0-13.975 5.001-25.394 13.168-34.358-1.32-3.24-5.706-16.242 1.246-33.874 0 0 10.749-3.44 35.21 13.121 10.21-2.836 21.16-4.258 32.038-4.307 10.878.049 21.837 1.47 32.066 4.307 24.431-16.56 35.165-13.12 35.165-13.12 6.967 17.63 2.584 30.633 1.263 33.873 8.187 8.964 13.15 20.383 13.15 34.358 0 49.163-29.944 59.988-58.447 63.157 4.591 3.972 8.682 11.762 8.682 23.704 0 17.126-.148 30.91-.148 35.126 0 3.407 2.304 7.398 8.792 6.14C219.372 232.5 256 184.537 256 128.001 256 57.307 198.691 0 128.001 0"/>
</svg>
