<svg viewBox="0 0 256 264" xmlns="http://www.w3.org/2000/svg">
  <path fill="#F05A28" d="M128 0L0 63.91v130.248L128 264l128-69.842V63.91L128 0z"/>
  <path fill="#FFF" d="M128 28.35L20.47 79.73v104.54L128 235.65l107.53-51.38V79.73L128 28.35z"/>
  <path fill="#F05A28" d="M128 56.7l-85.88 41.11v82.22L128 221.15l85.88-41.12V97.81L128 56.7z"/>
  <path fill="#FFF" d="M128 91.125l-52.5 25.09v50.18l52.5 25.09 52.5-25.09v-50.18L128 91.125z"/>
  <path fill="#F05A28" d="M128 116.21l-26.25 12.545v25.09l26.25 12.545 26.25-12.545v-25.09L128 116.21z"/>
</svg>
