<svg viewBox="0 0 256 256" xmlns="http://www.w3.org/2000/svg">
  <path fill="#DD344C" d="M128 0C57.308 0 0 57.308 0 128s57.308 128 128 128 128-57.308 128-128S198.692 0 128 0z"/>
  <path fill="#FFF" d="M128 40c-48.601 0-88 39.399-88 88s39.399 88 88 88 88-39.399 88-88-39.399-88-88-88zm0 156c-37.555 0-68-30.445-68-68s30.445-68 68-68 68 30.445 68 68-30.445 68-68 68z"/>
  <path fill="#FFF" d="M128 88c-22.091 0-40 17.909-40 40s17.909 40 40 40 40-17.909 40-40-17.909-40-40-40zm0 60c-11.046 0-20-8.954-20-20s8.954-20 20-20 20 8.954 20 20-8.954 20-20 20z"/>
  <circle fill="#FFF" cx="128" cy="128" r="12"/>
  <path fill="#FFF" d="M128 72v24M128 160v24M72 128h24M160 128h24" stroke="#FFF" stroke-width="8"/>
</svg>
