<svg viewBox="0 0 256 256" xmlns="http://www.w3.org/2000/svg">
  <path fill="#D33833" d="M128 0C57.4 0 0 57.4 0 128s57.4 128 128 128 128-57.4 128-128S198.6 0 128 0z"/>
  <path fill="#EF3D3A" d="M128 10.8c64.8 0 117.2 52.5 117.2 117.2S192.8 245.2 128 245.2 10.8 192.8 10.8 128 63.2 10.8 128 10.8z"/>
  <path fill="#231F20" d="M128 36.6c-50.4 0-91.4 41-91.4 91.4s41 91.4 91.4 91.4 91.4-41 91.4-91.4-41-91.4-91.4-91.4z"/>
  <path fill="#D33833" d="M128 47.2c44.6 0 80.8 36.2 80.8 80.8s-36.2 80.8-80.8 80.8-80.8-36.2-80.8-80.8 36.2-80.8 80.8-80.8z"/>
  <path fill="#F0D6B7" d="M173.1 109.7l-54.5-27.2a7.2 7.2 0 0 0-6.5 0L57.6 109.7a7.2 7.2 0 0 0-3.8 6.4v54.3c0 2.7 1.5 5.1 3.8 6.4l54.5 27.2c2 1 4.3 1 6.3 0l54.5-27.2c2.4-1.2 3.8-3.7 3.8-6.4v-54.3c.1-2.7-1.4-5.2-3.6-6.4z"/>
  <path fill="#231F20" d="M128 114.2c-12.7 0-23 10.3-23 23s10.3 23 23 23 23-10.3 23-23-10.3-23-23-23z"/>
</svg>
