<svg viewBox="0 0 256 249" xmlns="http://www.w3.org/2000/svg">
  <path fill="#326CE5" d="M128.003 0L0 47.01v107.057l128.003 94.69 128.002-94.69V47.01L128.003 0zm-4.913 195.963c-14.186 0-27.196-5.089-37.288-13.522l-24.453 10.68 10.34-23.564c-9.995-10.742-16.11-25.118-16.11-40.876 0-33.247 26.94-60.188 60.187-60.188 33.248 0 60.188 26.94 60.188 60.188 0 33.247-26.94 60.187-60.188 60.187l-.676.095zm-35.22-53.2l14.16-2.076 3.982 13.584 9.556-10.604 13.824 4.814-6.382-13.242 10.298-10.01-14.166 2.05-3.96-13.582-9.58 10.626-13.802-4.84 6.382 13.266-10.312 10.014zm70.44 0l-10.312-10.014 6.382-13.266-13.802 4.84-9.58-10.626-3.96 13.582-14.166-2.05 10.298 10.01-6.382 13.242 13.824-4.814 9.556 10.604 3.982-13.584 14.16 2.076z"/>
</svg>
