<svg viewBox="0 0 256 256" xmlns="http://www.w3.org/2000/svg">
  <path fill="#FCC624" d="M128 0C57.308 0 0 57.308 0 128s57.308 128 128 128 128-57.308 128-128S198.692 0 128 0z"/>
  <path fill="#000" d="M200.044 169.784c-1.472 4.424-7.632 8.104-12.8 8.104-4.416 0-8.816-2.136-11.664-6.248-.736-1.064-.624-2.208.256-2.96l22.184-18.936c1.048-.896 2.608-.728 3.496.32 1.8 2.128 2.784 3.84 2.784 8.208 0 4.376-2.776 7.96-4.256 11.512zm-72.044 27.06c-37.704 0-68.192-30.496-68.192-68.192 0-37.696 30.488-68.192 68.192-68.192 23.744 0 44.592 12.128 56.8 30.536l-22.792 19.456c-7.592-10.944-20.152-18.08-34.008-18.08-23.12 0-41.856 18.744-41.856 41.856 0 23.12 18.736 41.856 41.856 41.856 13.856 0 26.416-7.136 34.008-18.08l22.792 19.456c-12.208 18.408-33.056 30.536-56.8 30.536z"/>
</svg>
