<svg viewBox="0 0 256 257" xmlns="http://www.w3.org/2000/svg">
  <path fill="#E6522C" d="M128.001.667C57.311.667 0 57.971 0 128.664c0 70.69 57.311 128.003 128.001 128.003S256 199.354 256 128.664C256 57.97 198.689.667 128.001.667zm0 239.562c-61.655 0-111.556-49.906-111.556-111.565 0-61.656 49.9-111.557 111.556-111.557 61.654 0 111.557 49.9 111.557 111.557 0 61.659-49.903 111.565-111.557 111.565z"/>
  <path fill="#E6522C" d="M128.001 25.09c-57.202 0-103.574 46.379-103.574 103.574 0 57.2 46.372 103.582 103.574 103.582s103.573-46.382 103.573-103.582S185.203 25.09 128.001 25.09zm-.004 186.393c-45.723 0-82.816-37.093-82.816-82.82 0-45.719 37.093-82.813 82.816-82.813 45.72 0 82.821 37.094 82.821 82.813 0 45.727-37.101 82.82-82.821 82.82z"/>
  <path fill="#E6522C" d="M169.312 90.017l-17.635 54.288-54.294 17.635-17.635 54.294L134.042 198.6l17.635-54.289 54.289-17.635-36.654-36.659z"/>
</svg>
